<svg id="Layer_1" data-name="Layer 1" xmlns="http://www.w3.org/2000/svg" viewBox="0 0 448 448"><defs><style>.cls-1{fill:#6d7278;}</style></defs><path class="cls-1" d="M21.49,248.71q0-35.07,19.53-54.61t54.41-19.53q35.76,0,55.1,19.19t19.34,53.77q0,25.11-8.45,41.18a60.27,60.27,0,0,1-24.42,25q-16,8.94-39.81,8.94-24.22,0-40.1-7.71T31.35,290.51Q21.5,273.82,21.49,248.71Zm44.25.19q0,21.69,8.06,31.16t21.93,9.48q14.25,0,22.07-9.28T125.62,247q0-20.22-8.16-29.55t-22.12-9.33q-13.4,0-21.49,9.48T65.74,248.9Z"/><path class="cls-1" d="M188.33,125.35h86l33.18,118.56,32.95-118.56h86V320.21H372.92V171.6L331.63,320.21h-48.5L241.92,171.6V320.21H188.33Z"/><rect class="cls-1" x="23.19" y="125.74" width="144.48" height="36.12"/></svg>